HIERARCHY
ROOT Hips
{
	OFFSET 0.000000 0.000000 0.000000
	CHANNELS 6 Xposition Yposition Zposition Zrotation Yrotation Xrotation 
	JOINT LeftUpLeg_virtual
	{
		OFFSET 0.000000 0.000000 0.000000
		CHANNELS 3 Zrotation Yrotation Xrotation
		JOINT LeftUpLeg
		{
			OFFSET 10.205400 -3.823500 0.155100
			CHANNELS 3 Zrotation Yrotation Xrotation
			JOINT LeftLeg
			{
				OFFSET 0.708757 -12.982077 0.567790
				CHANNELS 3 Zrotation Yrotation Xrotation
				JOINT LeftFoot
				{
					OFFSET -0.708756 -10.717838 -2.184338
					CHANNELS 3 Zrotation Yrotation Xrotation
					JOINT LeftToeBase
					{
						OFFSET 0.108149 -7.191104 7.560241
						CHANNELS 3 Zrotation Yrotation Xrotation
						End Site
						{
							OFFSET 0.000000 0.000000 0.000000
						}
					}
				}
			}
		}
	}
	JOINT RightUpLeg_virtual
	{
		OFFSET 0.000000 0.000000 0.000000
		CHANNELS 3 Zrotation Yrotation Xrotation
		JOINT RightUpLeg
		{
			OFFSET -10.205400 -3.823500 0.005500
			CHANNELS 3 Zrotation Yrotation Xrotation
			JOINT RightLeg
			{
				OFFSET -0.708756 -12.982134 0.610632
				CHANNELS 3 Zrotation Yrotation Xrotation
				JOINT RightFoot
				{
					OFFSET 0.708754 -10.717769 -1.945823
					CHANNELS 3 Zrotation Yrotation Xrotation
					JOINT RightToeBase
					{
						OFFSET -0.108140 -7.191069 7.372968
						CHANNELS 3 Zrotation Yrotation Xrotation
						End Site
						{
							OFFSET 0.000000 0.000000 0.000000
						}
					}
				}
			}
		}
	}
	JOINT Spine_virtual
	{
		OFFSET 0.000000 0.000000 0.000000
		CHANNELS 3 Zrotation Yrotation Xrotation
		JOINT Spine
		{
			OFFSET 0.000000 6.876099 0.125700
			CHANNELS 3 Zrotation Yrotation Xrotation
			JOINT Spine1
			{
				OFFSET 0.000000 8.022060 0.146608
				CHANNELS 3 Zrotation Yrotation Xrotation
				JOINT Spine2
				{
					OFFSET 0.000000 9.168068 0.167552
					CHANNELS 3 Zrotation Yrotation Xrotation
					JOINT Neck_virtual
					{
						OFFSET 0.000000 0.000000 0.000000
						CHANNELS 3 Zrotation Yrotation Xrotation
						JOINT Neck
						{
							OFFSET 0.000000 10.314075 0.188496
							CHANNELS 3 Zrotation Yrotation Xrotation
							JOINT Head
							{
								OFFSET 0.000000 7.643700 -2.377400
								CHANNELS 3 Zrotation Yrotation Xrotation
								End Site
								{
									OFFSET 0.000000 0.000000 0.000000
								}
							}
						}
					}
					JOINT LeftShoulder_virtual
					{
						OFFSET 0.000000 0.000000 0.000000
						CHANNELS 3 Zrotation Yrotation Xrotation
						JOINT LeftShoulder
						{
							OFFSET 4.392200 8.824978 0.174984
							CHANNELS 3 Zrotation Yrotation Xrotation
							JOINT LeftArm
							{
								OFFSET 8.771219 -2.981674 -0.026999
								CHANNELS 3 Zrotation Yrotation Xrotation
								JOINT LeftForeArm
								{
									OFFSET 8.512804 0.000000 -0.000000
									CHANNELS 3 Zrotation Yrotation Xrotation
									JOINT LeftHand
									{
										OFFSET 18.484802 0.000000 -0.000000
										CHANNELS 3 Zrotation Yrotation Xrotation
										End Site
										{
											OFFSET 0.000000 0.000000 0.000000
										}
									}
								}
							}
						}
					}
					JOINT RightShoulder_virtual
					{
						OFFSET 0.000000 0.000000 0.000000
						CHANNELS 3 Zrotation Yrotation Xrotation
						JOINT RightShoulder
						{
							OFFSET -4.392200 8.824993 0.141379
							CHANNELS 3 Zrotation Yrotation Xrotation
							JOINT RightArm
							{
								OFFSET -8.771282 -2.981682 -0.094208
								CHANNELS 3 Zrotation Yrotation Xrotation
								JOINT RightForeArm
								{
									OFFSET -8.494598 0.000000 0.000000
									CHANNELS 3 Zrotation Yrotation Xrotation
									JOINT RightHand
									{
										OFFSET -18.483803 0.000000 0.000001
										CHANNELS 3 Zrotation Yrotation Xrotation
										End Site
										{
											OFFSET 0.000000 0.000000 0.000000
										}
									}
								}
							}
						}
					}
				}
			}
		}
	}
}
MOTION
Frames: 9
Frame Time: 0.033333
3.678476 36.302158 2.944496 -179.884438 2.795465 179.971906 -2.502446 -2.943278 9.946114 -7.882902 -2.882263 -18.932678 9.707312 10.386082 15.378408 -6.343437 1.524355 10.366407 0.000000 0.000000 0.000000 2.393194 -1.653942 7.909909 2.491460 0.357984 -6.974436 -7.442380 0.667777 12.121224 6.402994 7.882649 6.155601 0.000000 0.000000 0.000000 2.061028 0.267226 1.675547 -3.610874 2.040256 -6.650764 0.545242 -4.431230 3.626070 0.003573 -0.030772 0.007705 0.242107 -2.889302 5.529336 1.956128 4.297289 -0.476905 0.000000 0.000000 0.000000 1.364749 -1.972485 3.032378 4.474435 1.209567 -5.351443 -17.635169 22.330257 -27.823493 -6.007033 -29.466037 -2.981479 0.000000 0.000000 0.000000 -1.959922 -1.212619 2.540162 6.512880 -3.986002 -9.836802 31.264071 -31.049801 -29.437070 -1.310556 33.066790 -6.499888 0.000000 0.000000 0.000000 
3.731335 36.306274 2.910933 -179.977001 2.840005 179.916103 -2.637044 -2.791621 9.926541 -7.903735 -2.669658 -19.015195 9.820409 10.414049 15.214511 -6.150946 1.496790 10.650711 0.000000 0.000000 0.000000 2.390354 -1.585517 8.046196 2.399776 0.649110 -6.980120 -7.744596 0.916917 11.966001 6.958172 8.428100 5.704685 0.000000 0.000000 0.000000 2.045669 0.313019 1.754185 -3.625068 1.973078 -6.606085 0.500937 -4.390666 3.670648 -0.035373 -0.024437 0.001128 0.295292 -2.908358 5.533081 1.933535 4.247779 -0.412073 0.000000 0.000000 0.000000 1.448758 -1.940911 3.016121 4.503337 1.042945 -5.264417 -17.747483 22.325252 -27.831266 -5.947660 -29.591859 -2.947521 0.000000 0.000000 0.000000 -1.909531 -1.195565 2.578847 6.536047 -4.050294 -9.862439 31.283147 -31.097093 -29.559795 -1.205323 32.941032 -6.370221 0.000000 0.000000 0.000000 
3.833157 36.303967 2.872337 -179.893099 2.940674 179.986877 -2.459639 -2.845807 9.917730 -7.820858 -2.790137 -19.078289 9.975381 10.059572 15.370671 -6.040328 1.375392 10.545546 0.000000 0.000000 0.000000 2.556388 -1.460859 8.127391 2.466256 0.716476 -7.070544 -7.487331 0.968758 12.038859 6.662291 8.103638 5.612711 0.000000 0.000000 0.000000 2.142868 0.434305 1.747893 -3.568791 1.892508 -6.632123 0.540585 -4.338503 3.661894 0.003933 -0.001203 -0.020157 0.233071 -2.868954 5.567336 1.706673 4.146543 -0.279245 0.000000 0.000000 0.000000 1.382833 -1.953542 3.092004 4.508304 0.770841 -5.418029 -17.960157 22.467776 -27.709794 -5.906080 -29.711552 -2.846419 0.000000 0.000000 0.000000 -1.978577 -1.202992 2.561824 6.684550 -4.192304 -9.642484 31.373306 -31.115012 -29.707624 -1.214295 32.859842 -6.458167 0.000000 0.000000 0.000000 
3.972530 36.286976 2.836500 -179.951360 3.161501 -179.999732 -2.374294 -2.852620 9.981288 -7.746429 -2.856572 -19.026680 10.053687 9.901655 15.420699 -6.025922 1.226726 10.443204 0.000000 0.000000 0.000000 2.499930 -1.273407 8.231166 2.642955 0.661622 -7.151015 -7.309692 0.699540 12.305964 6.572162 7.923970 5.404445 0.000000 0.000000 0.000000 2.175045 0.494573 1.805524 -3.593473 1.775817 -6.595194 0.527175 -4.263236 3.690004 -0.033203 -0.004439 -0.016033 0.298850 -2.823442 5.575334 1.340966 4.088477 -0.044429 0.000000 0.000000 0.000000 1.485768 -1.849430 3.052888 4.472192 0.582097 -5.410255 -18.392677 22.788030 -27.498476 -5.747947 -29.700531 -2.796891 0.000000 0.000000 0.000000 -1.907744 -1.075103 2.553112 6.979082 -4.244872 -9.551767 31.318985 -31.046615 -29.618033 -1.068646 32.858100 -6.323092 0.000000 0.000000 0.000000 
4.138770 36.257420 2.790724 179.912210 3.306222 179.952563 -2.337827 -2.866910 10.019216 -7.632824 -2.923517 -18.954427 10.210292 9.598193 15.764797 -6.038422 1.056867 10.136295 0.000000 0.000000 0.000000 2.438759 -1.227116 8.318115 2.774684 0.797934 -7.264079 -6.932194 0.542897 12.654687 6.260910 7.583283 5.122644 0.000000 0.000000 0.000000 2.162254 0.517675 1.843435 -3.632144 1.647620 -6.495409 0.540386 -4.174812 3.745049 -0.008330 -0.006697 -0.000896 0.332437 -2.747718 5.572631 0.810378 4.027128 0.338711 0.000000 0.000000 0.000000 1.558157 -1.735874 3.019061 4.444052 0.298726 -5.386069 -19.077313 23.285018 -27.312350 -5.555865 -29.581064 -2.686430 0.000000 0.000000 0.000000 -1.853763 -1.028285 2.559009 7.310156 -4.382273 -9.466361 31.419430 -30.756957 -29.701207 -0.879976 32.923861 -6.121510 0.000000 0.000000 0.000000 
4.345328 36.216652 2.730914 179.986276 3.595419 179.979419 -2.129970 -2.719053 9.970556 -7.439697 -3.017552 -18.916709 10.293636 9.081465 16.114820 -6.182541 0.832845 9.690332 0.000000 0.000000 0.000000 2.562935 -0.984354 8.357425 2.936893 0.670054 -7.399534 -6.596998 0.242160 13.265894 6.088636 7.317281 4.688418 0.000000 0.000000 0.000000 2.230068 0.393144 1.831302 -3.620165 1.585852 -6.431821 0.609553 -3.987982 3.826850 0.012119 0.059034 -0.010139 0.337730 -2.514134 5.664677 0.145663 3.989239 0.770119 0.000000 0.000000 0.000000 1.577177 -1.578451 3.070176 4.334067 -0.001234 -5.349167 -19.978869 23.997513 -26.749768 -5.312418 -29.413810 -2.539734 0.000000 0.000000 0.000000 -1.838765 -0.889641 2.607455 7.782995 -4.421741 -9.204708 31.400381 -30.404683 -29.287520 -0.770284 33.111005 -6.030692 0.000000 0.000000 0.000000 
4.594664 36.171299 2.657758 179.985074 3.911923 -179.930351 -1.929132 -2.511203 9.960660 -7.134525 -3.076291 -18.924851 10.331707 8.510049 16.570917 -6.237601 0.759038 9.119437 0.000000 0.000000 0.000000 2.714022 -0.672615 8.332941 3.219633 0.450929 -7.570763 -6.255463 -0.054799 14.072929 5.783555 7.112858 4.080108 0.000000 0.000000 0.000000 2.247928 0.670719 1.785689 -3.652996 1.408856 -6.352467 0.634557 -3.946491 3.952293 0.008066 0.010342 0.018689 0.405952 -2.386985 5.755729 -0.620492 3.994872 1.321351 0.000000 0.000000 0.000000 1.689785 -1.427358 3.099561 4.249078 -0.356063 -5.270801 -21.236894 24.873193 -26.173251 -5.051696 -29.197238 -2.358897 0.000000 0.000000 0.000000 -1.754055 -0.710821 2.674473 8.375018 -4.426292 -8.927555 31.325375 -29.953235 -28.535663 -0.613298 33.464163 -5.778296 0.000000 0.000000 0.000000 
4.888729 36.116035 2.578753 179.895244 4.071702 -179.932263 -1.898845 -2.458030 9.988654 -6.660054 -3.177747 -18.990315 10.225568 7.845682 17.200436 -6.312594 0.677331 8.360839 0.000000 0.000000 0.000000 2.738810 -0.365859 8.419475 3.657271 0.501347 -7.618672 -6.157189 -0.561171 14.683787 5.383892 6.924621 3.586049 0.000000 0.000000 0.000000 2.111179 0.755042 1.842458 -3.711954 1.248855 -6.307763 0.696504 -3.845398 4.131359 -0.018634 -0.002699 0.026318 0.480136 -2.350629 5.940007 -1.476902 4.070939 1.947792 0.000000 0.000000 0.000000 1.809503 -1.293875 3.204689 4.083223 -0.770829 -5.118358 -22.768743 25.899562 -25.365285 -4.671721 -28.882630 -2.197570 0.000000 0.000000 0.000000 -1.635303 -0.562578 2.782215 9.025995 -4.433046 -8.603987 31.246582 -29.542050 -27.414554 -0.459867 34.152804 -5.510121 0.000000 0.000000 0.000000 
5.204950 36.057560 2.511460 179.978189 4.472180 -179.940596 -1.694743 -2.322711 10.149385 -5.959836 -3.360381 -19.272026 10.136593 7.640632 18.134461 -6.593867 0.659025 7.601859 0.000000 0.000000 0.000000 2.939448 -0.042778 8.444446 4.127298 0.816702 -7.627754 -5.946209 -0.883974 15.144601 4.761848 6.631433 3.025925 0.000000 0.000000 0.000000 2.091209 0.838312 1.981032 -3.811112 1.157168 -6.340623 0.858911 -3.720592 4.323220 -0.012893 0.016280 0.012812 0.464246 -2.078828 6.185045 -2.438396 4.156729 2.681723 0.000000 0.000000 0.000000 1.821156 -1.185970 3.393153 3.857634 -1.254676 -5.044119 -24.642167 26.959795 -24.519372 -4.308177 -28.440670 -1.888323 0.000000 0.000000 0.000000 -1.649789 -0.455170 2.947042 9.831992 -4.466551 -8.207197 31.109541 -29.164310 -25.801801 -0.383870 35.189039 -5.270236 0.000000 0.000000 0.000000 
